<svg xmlns="http://www.w3.org/2000/svg" width="15" height="15" fill="none" viewBox="0 0 15 15">
    <g clip-path="url(#a)">
        <path fill="#6A609C" d="M7.501 0a7.5 7.5 0 1 0 0 15 7.5 7.5 0 0 0 0-15zm3.96 10.943l-.6.601c-.107.107-.421.174-.431.174a7.087 7.087 0 0 1-7.148-7.164c0-.001.069-.306.176-.412l.6-.6c.22-.221.642-.321.938-.222l.126.042c.295.099.605.425.686.725l.302 1.109c.082.3-.028.73-.248.95l-.4.4a4.26 4.26 0 0 0 2.994 2.996l.4-.401c.222-.221.65-.33.95-.25l1.109.304c.3.082.626.39.725.685l.042.128c.098.295 0 .717-.22.935z"/>
    </g>
    <defs>
        <clipPath id="a">
            <path fill="#fff" d="M0 0h15v15H0z"/>
        </clipPath>
    </defs>
</svg>
