<svg xmlns="http://www.w3.org/2000/svg" width="15" height="15" fill="none" viewBox="0 0 15 15">
    <path fill="#6A609C" d="M7.5 0a7.5 7.5 0 1 0 .002 15.002A7.5 7.5 0 0 0 7.5 0zm.159 11.867h-.002c-.751 0-1.49-.189-2.145-.547l-2.38.624.637-2.325a4.477 4.477 0 0 1-.599-2.243 4.494 4.494 0 0 1 4.489-4.487c1.2 0 2.328.467 3.175 1.316a4.46 4.46 0 0 1 1.314 3.174 4.495 4.495 0 0 1-4.489 4.488z"/>
    <path fill="#6A609C" d="M7.66 3.647a3.736 3.736 0 0 0-3.732 3.73c0 .704.197 1.39.57 1.984l.089.141-.377 1.376 1.412-.37.136.08c.573.34 1.23.52 1.9.52A3.736 3.736 0 0 0 11.39 7.38c0-.997-.388-1.934-1.092-2.639A3.706 3.706 0 0 0 7.66 3.647zM9.855 8.98c-.094.261-.542.5-.757.533a1.54 1.54 0 0 1-.707-.045 6.475 6.475 0 0 1-.64-.236C6.628 8.746 5.893 7.614 5.837 7.54c-.056-.075-.458-.608-.458-1.16 0-.552.29-.823.392-.935a.412.412 0 0 1 .3-.14c.074 0 .15 0 .215.003.068.004.16-.026.252.193.093.224.318.776.346.832.028.057.046.122.01.197a3.196 3.196 0 0 1-.281.383c-.05.062-.115.117-.05.23.066.111.291.479.624.776.429.382.79.5.902.556.113.057.178.047.243-.028.066-.074.28-.327.356-.44.074-.112.15-.093.252-.055.103.037.654.308.766.364.112.057.187.085.215.131.028.047.028.272-.065.534z"/>
</svg>
